<svg width="21" height="22" viewBox="0 0 21 22" fill="none" xmlns="http://www.w3.org/2000/svg">
<path d="M20.9996 10.9693C20.9996 10.2631 20.937 9.59256 20.8297 8.93994H10.7275V12.9719H16.5117C16.2524 14.295 15.4925 15.4125 14.3661 16.1724V18.8544H17.8169C19.8374 16.9859 20.9996 14.2324 20.9996 10.9693Z" fill="#4285F4"/>
<path d="M10.728 21.4561C13.6246 21.4561 16.0473 20.4906 17.8174 18.8546L14.3666 16.1726C13.4011 16.8163 12.1763 17.2096 10.728 17.2096C7.92982 17.2096 5.56073 15.3233 4.71143 12.7754H1.15332V15.5378C2.91449 19.0423 6.53518 21.4561 10.728 21.4561Z" fill="#34A853"/>
<path d="M4.71136 12.7754C4.48787 12.1317 4.37164 11.4434 4.37164 10.7282C4.37164 10.013 4.49681 9.32459 4.71136 8.68091V5.91846H1.15326C0.420178 7.36673 0 8.9938 0 10.7282C0 12.4625 0.420178 14.0896 1.15326 15.5379L4.71136 12.7754Z" fill="#FBBC05"/>
<path d="M10.728 4.24649C12.3104 4.24649 13.7229 4.79183 14.8404 5.85568L17.8979 2.79821C16.0473 1.06386 13.6246 0 10.728 0C6.53518 0 2.91449 2.41379 1.15332 5.91826L4.71143 8.68071C5.56073 6.13282 7.92982 4.24649 10.728 4.24649Z" fill="#EA4335"/>
</svg>
