<svg width="21" height="21" viewBox="0 0 21 21" fill="none" xmlns="http://www.w3.org/2000/svg">
<path d="M21 9.9167C21.004 11.4565 20.6442 12.9756 19.95 14.35C19.1268 15.9971 17.8614 17.3824 16.2954 18.3509C14.7293 19.3193 12.9246 19.8327 11.0833 19.8334C9.54349 19.8374 8.02447 19.4776 6.65 18.7834L0 21L2.21667 14.35C1.52242 12.9756 1.16265 11.4565 1.16667 9.9167C1.16738 8.07542 1.68071 6.27069 2.64917 4.70468C3.61763 3.13866 5.00296 1.8732 6.65 1.05003C8.02447 0.355786 9.54349 -0.00398156 11.0833 3.32361e-05H11.6667C14.0984 0.13419 16.3952 1.16059 18.1173 2.8827C19.8394 4.60482 20.8658 6.90163 21 9.33337V9.9167Z" fill="#F2C94C"/>
</svg>
